<svg xmlns="http://www.w3.org/2000/svg" width="70" height="70" viewBox="0 0 70 70">
  <path id="at" d="M71.978,33.061c0-18.2-14.147-30.871-34.484-30.871C16.421,2.19,1.978,16.411,1.978,37.172,1.978,58.6,16.037,72.19,38.224,72.19a47.487,47.487,0,0,0,14.493-2.055V64.846c-2.7,1.221-8.517,2.012-14.405,2.012-18.406,0-30.276-11.534-30.276-29.436,0-17.448,12.084-29.945,28.9-29.945,17.2,0,28.986,10.356,28.986,25.5,0,10.319-3.485,16.988-8.907,16.988-3.095,0-4.856-1.718-4.856-4.663V20.693H45.665V25.81h-.692C43.3,22.159,39.431,19.9,34.908,19.9,26.1,19.9,19.95,27.024,19.95,37.215c0,10.656,6.02,17.828,14.965,17.828,5.032,0,8.9-2.393,10.75-6.669h.692c.51,4.11,4.422,7.043,9.455,7.043,9.889,0,16.166-8.681,16.166-22.35ZM26.832,37.38c0-7.344,3.4-11.7,9.159-11.7,5.85,0,9.587,4.528,9.587,11.7S41.8,49.123,35.9,49.123C30.272,49.123,26.832,44.675,26.832,37.38Z" transform="translate(-1.978 -2.19)"/>
</svg>
