<svg xmlns="http://www.w3.org/2000/svg" width="70" height="70" viewBox="0 0 70 70">
  <path id="telephone-fill" d="M8.248,2.233a7.634,7.634,0,0,1,11.418.713l7.853,10.089A7.632,7.632,0,0,1,28.9,19.572L26.5,29.154a2.967,2.967,0,0,0,.779,2.813l10.749,10.75a2.966,2.966,0,0,0,2.817.779L50.426,41.1a7.634,7.634,0,0,1,6.536,1.378L67.051,50.33a7.633,7.633,0,0,1,.713,11.424L63.24,66.277a12.148,12.148,0,0,1-12.586,3.071A81.52,81.52,0,0,1,19.986,50.01,81.528,81.528,0,0,1,.649,19.344,12.163,12.163,0,0,1,3.725,6.757Z" transform="translate(0 -0.001)" fill-rule="evenodd"/>
</svg>
